<svg xmlns="http://www.w3.org/2000/svg" width="1600" height="900" viewBox="0 0 1600 900" fill="none">
  <rect width="1600" height="900" fill="#EEF4FB"/>
  <rect x="90" y="80" width="1420" height="740" rx="40" fill="#0F172A"/>
  <rect x="930" y="170" width="430" height="560" rx="32" fill="#FFFFFF"/>
  <rect x="1010" y="250" width="210" height="18" rx="9" fill="#1C7ED6" fill-opacity=".2"/>
  <rect x="1010" y="300" width="270" height="54" rx="18" fill="#F8FAFC"/>
  <rect x="1010" y="384" width="270" height="54" rx="18" fill="#F8FAFC"/>
  <rect x="1010" y="478" width="270" height="54" rx="18" fill="#111827"/>
  <rect x="180" y="210" width="410" height="24" rx="12" fill="#94A3B8"/>
  <rect x="180" y="258" width="540" height="30" rx="15" fill="#FFFFFF"/>
  <rect x="180" y="330" width="200" height="130" rx="24" fill="#1E293B"/>
  <rect x="404" y="330" width="200" height="130" rx="24" fill="#1E293B"/>
  <rect x="628" y="330" width="200" height="130" rx="24" fill="#1E293B"/>
  <text x="180" y="160" fill="#FFFFFF" font-family="Arial, sans-serif" font-size="44" font-weight="700">Niguada CRM</text>
  <text x="1010" y="210" fill="#111827" font-family="Arial, sans-serif" font-size="36" font-weight="700">Login Screen</text>
</svg>
